<?xml version="1.0" encoding="iso-8859-1"?>
<!-- Generator: Adobe Illustrator 19.0.0, SVG Export Plug-In . SVG Version: 6.00 Build 0)  -->
<svg version="1.1" id="Capa_1" xmlns="http://www.w3.org/2000/svg" xmlns:xlink="http://www.w3.org/1999/xlink" x="0px" y="0px"
	 viewBox="0 0 512 512" style="enable-background:new 0 0 512 512;" xml:space="preserve">
<path style="fill:#728080;" d="M503.53,293.056H8.477c-5.182,0-9.21-4.615-8.365-9.725C3.44,263.15,16.966,246.42,35.211,238.57
	c-0.01-0.031-0.021-0.062-0.031-0.093c-1.793-4.842-3.029-9.962-3.637-15.267c-0.278-2.462-0.422-4.965-0.422-7.51
	c0-31.039,21.5-57.031,50.427-63.933c-0.968-5.851-1.473-11.857-1.473-17.987c0-60.966,49.428-110.394,110.404-110.394
	c49.562,0,91.49,32.657,105.439,77.634c0.773,2.452,1.453,4.934,2.04,7.458c2.421-0.845,4.883-1.597,7.386-2.236
	c7.026-1.792,14.392-2.751,21.984-2.751c49.139,0,88.976,39.827,88.976,88.966c0,4.584-0.361,9.076-1.03,13.475
	c-0.391,2.565-0.896,5.079-1.494,7.572c2.493-0.536,5.038-0.968,7.613-1.277c3.163-0.391,6.387-0.587,9.663-0.587
	c41.815,0,76.264,31.524,80.89,72.102C512.513,288.719,508.536,293.056,503.53,293.056z"/>
<g>
	<path style="fill:#585E60;" d="M503.523,293.057h-6.371c-6.207-38.802-39.835-68.453-80.373-68.453
		c-5.932,0-11.711,0.659-17.281,1.857c1.637-6.745,2.516-13.787,2.516-21.038c0-49.14-39.835-88.975-88.975-88.975
		c-10.294,0-20.17,1.769-29.365,4.988C272.228,72.669,228.46,36.35,176.19,36.35c-25.081,0-48.206,8.36-66.739,22.455
		c20.159-21.785,48.997-35.418,81.021-35.418c52.271,0,96.038,36.319,107.486,85.085c9.195-3.219,19.071-4.988,29.365-4.988
		c49.14,0,88.975,39.835,88.975,88.975c0,7.251-0.879,14.293-2.516,21.038c5.57-1.197,11.348-1.857,17.281-1.857
		c41.806,0,76.258,31.524,80.879,72.104C512.507,288.721,508.532,293.057,503.523,293.057z"/>
	<path style="fill:#585E60;" d="M119.665,253.167c-1.514,1.659-3.595,2.493-5.676,2.493c-1.875,0-3.75-0.68-5.233-2.04
		c-35.304-32.523-69.826-16.988-73.575-15.144c-1.793-4.842-3.029-9.962-3.637-15.267c4.852-1.978,13.722-4.862,25.002-5.439
		c15.617-0.783,39.167,2.823,62.676,24.477C122.353,245.142,122.559,250.025,119.665,253.167z"/>
	<path style="fill:#585E60;" d="M301.12,115.515c-0.165,0.082-8.612,3.976-17.997,11.487c-9.375,7.52-19.687,18.657-23.57,33.213
		c-0.927,3.451-4.049,5.738-7.469,5.738c-0.659,0-1.329-0.082-1.999-0.268c-4.121-1.102-6.573-5.336-5.47-9.457
		c9.704-36.304,48.532-54.064,50.18-54.806c0.371-0.165,0.742-0.299,1.123-0.402c0.773,2.452,1.453,4.934,2.04,7.458
		c2.421-0.845,4.883-1.597,7.386-2.236C306.456,109.911,304.705,113.908,301.12,115.515z"/>
	<path style="fill:#585E60;" d="M416.253,220.82c-0.124,0.041-6.253,2.184-13.619,6.985c-7.355,4.801-15.947,12.259-20.985,22.921
		c-1.329,2.792-4.1,4.419-6.995,4.419c-1.102,0-2.225-0.237-3.297-0.742c-3.863-1.823-5.511-6.428-3.678-10.281
		c12.939-27.382,42.392-37.529,43.638-37.941c1.329-0.443,2.689-0.515,3.956-0.247c-0.391,2.565-0.896,5.079-1.494,7.572
		c2.493-0.536,5.038-0.968,7.613-1.277C422.012,215.906,419.9,219.584,416.253,220.82z"/>
</g>
<g>
	<path style="fill:#00BBED;" d="M333.278,343.417c-1.977,0-3.955-0.755-5.463-2.263c-3.018-3.017-3.018-7.909,0-10.927
		l16.662-16.662c3.017-3.017,7.909-3.017,10.927,0s3.018,7.909,0,10.927l-16.662,16.662
		C337.233,342.663,335.255,343.417,333.278,343.417z"/>
	<path style="fill:#00BBED;" d="M258.428,418.267c-1.977,0-3.955-0.755-5.463-2.263c-3.018-3.017-3.018-7.909,0-10.927
		l16.662-16.662c3.017-3.017,7.909-3.017,10.927,0s3.018,7.909,0,10.927l-16.662,16.662
		C262.383,417.512,260.406,418.267,258.428,418.267z"/>
	<path style="fill:#00BBED;" d="M22.852,343.417c-1.977,0-3.955-0.755-5.463-2.263c-3.018-3.017-3.018-7.909,0-10.927l16.662-16.662
		c3.017-3.017,7.909-3.017,10.927,0s3.018,7.909,0,10.927l-16.662,16.662C26.807,342.663,24.829,343.417,22.852,343.417z"/>
	<path style="fill:#00BBED;" d="M96.293,424.067c-1.977,0-3.955-0.755-5.463-2.263c-3.018-3.017-3.018-7.909,0-10.927l16.662-16.662
		c3.017-3.017,7.909-3.017,10.927,0c3.018,3.017,3.018,7.909,0,10.927l-16.662,16.662C100.247,423.312,98.27,424.067,96.293,424.067
		z"/>
	<path style="fill:#00BBED;" d="M391.867,343.417c-1.977,0-3.955-0.755-5.463-2.263c-3.018-3.017-3.018-7.909,0-10.927
		l16.662-16.662c3.017-3.017,7.909-3.017,10.927,0s3.018,7.909,0,10.927l-16.662,16.662
		C395.821,342.663,393.844,343.417,391.867,343.417z"/>
	<path style="fill:#00BBED;" d="M344.677,390.607c-1.977,0-3.955-0.755-5.463-2.263c-3.018-3.017-3.018-7.909,0-10.927
		l16.662-16.662c3.017-3.017,7.909-3.017,10.927,0s3.018,7.909,0,10.927l-16.662,16.662
		C348.632,389.852,346.655,390.607,344.677,390.607z"/>
	<path style="fill:#00BBED;" d="M246.67,488.614c-1.977,0-3.955-0.755-5.463-2.263c-3.018-3.017-3.018-7.909,0-10.927l53.034-53.034
		c3.017-3.017,7.909-3.017,10.927,0s3.018,7.909,0,10.927l-53.034,53.034C250.625,487.859,248.647,488.614,246.67,488.614z"/>
	<path style="fill:#00BBED;" d="M160.993,387.875c-1.977,0-3.955-0.755-5.463-2.263c-3.018-3.017-3.018-7.909,0-10.927
		l53.034-53.034c3.017-3.017,7.909-3.017,10.927,0s3.018,7.909,0,10.927l-53.034,53.034
		C164.948,387.121,162.97,387.875,160.993,387.875z"/>
	<path style="fill:#00BBED;" d="M326.884,471.601c-1.977,0-3.955-0.755-5.463-2.263c-3.018-3.017-3.018-7.909,0-10.927
		l144.847-144.847c3.017-3.017,7.909-3.017,10.927,0s3.018,7.909,0,10.927L332.348,469.338
		C330.839,470.847,328.862,471.601,326.884,471.601z"/>
	<path style="fill:#00BBED;" d="M134.566,471.601c-1.977,0-3.955-0.755-5.463-2.263c-3.018-3.017-3.018-7.909,0-10.927
		L273.95,313.564c3.017-3.017,7.909-3.017,10.927,0s3.018,7.909,0,10.927L140.029,469.338
		C138.52,470.847,136.543,471.601,134.566,471.601z"/>
	<path style="fill:#00BBED;" d="M9.104,434.12c-1.977,0-3.955-0.755-5.463-2.263c-3.018-3.017-3.018-7.909,0-10.927l107.365-107.365
		c3.017-3.017,7.909-3.017,10.927,0c3.018,3.017,3.018,7.909,0,10.927L14.567,431.857C13.059,433.365,11.082,434.12,9.104,434.12z"
		/>
</g>
<g>
	<path style="fill:#585E60;" d="M130.661,152.872c-4.267,0-7.726-3.459-7.726-7.726v-0.906c0-4.267,3.459-7.726,7.726-7.726
		c4.267,0,7.726,3.459,7.726,7.726v0.906C138.387,149.413,134.928,152.872,130.661,152.872z"/>
	<path style="fill:#585E60;" d="M116.469,177.099c-4.267,0-7.726-3.459-7.726-7.726v-0.906c0-4.267,3.459-7.726,7.726-7.726
		s7.726,3.459,7.726,7.726v0.906C124.195,173.64,120.736,177.099,116.469,177.099z"/>
</g>
<g>
</g>
<g>
</g>
<g>
</g>
<g>
</g>
<g>
</g>
<g>
</g>
<g>
</g>
<g>
</g>
<g>
</g>
<g>
</g>
<g>
</g>
<g>
</g>
<g>
</g>
<g>
</g>
<g>
</g>
</svg>
